<?xml version="1.0" standalone="no"?>
<!DOCTYPE svg PUBLIC "-//W3C//DTD SVG 20010904//EN"
 "http://www.w3.org/TR/2001/REC-SVG-20010904/DTD/svg10.dtd">
<svg version="1.0" xmlns="http://www.w3.org/2000/svg"
 width="800.000000pt" height="600.000000pt" viewBox="0 0 800.000000 600.000000"
 preserveAspectRatio="xMidYMid meet">

<g transform="translate(0.000000,600.000000) scale(0.100000,-0.100000)"
fill="#000000" stroke="none">
<path d="M2810 5870 c-25 -4 -83 -13 -130 -20 -328 -48 -744 -210 -1065 -415
-252 -161 -576 -464 -742 -696 -313 -437 -476 -850 -543 -1379 -14 -111 -8
-701 8 -790 6 -30 15 -84 20 -120 5 -36 17 -94 26 -130 10 -36 24 -92 33 -125
8 -33 30 -103 48 -155 189 -551 528 -1014 1010 -1376 78 -59 221 -154 231
-154 2 0 22 -11 44 -25 69 -44 252 -132 370 -178 205 -81 418 -137 675 -179
100 -16 3396 -23 3515 -8 285 38 495 109 720 245 295 178 510 407 665 710 86
169 131 300 175 520 7 33 15 146 17 250 4 171 2 205 -21 340 -43 254 -133 479
-280 699 -58 87 -108 144 -233 266 -194 190 -297 261 -538 370 -199 90 -435
140 -659 140 -134 0 -136 0 -136 23 0 23 -35 151 -68 252 -104 313 -273 626
-478 880 -39 50 -150 167 -245 261 -247 242 -418 365 -709 510 -91 45 -205 98
-255 117 -155 60 -386 123 -535 146 -36 6 -95 15 -131 21 -76 11 -720 12 -789
0z m602 -153 c29 -20 63 -44 76 -53 26 -19 35 -16 142 51 65 42 121 46 187 14
105 -51 130 -175 53 -262 -16 -18 -75 -62 -132 -97 -57 -36 -131 -86 -165
-112 -61 -46 -62 -46 -80 -26 -9 11 -83 64 -163 118 -160 108 -182 127 -205
184 -20 48 -13 96 21 148 57 87 169 102 266 35z m358 -566 c181 -24 308 -57
474 -123 374 -150 687 -410 896 -746 52 -85 160 -293 160 -310 0 -5 134 -82
298 -171 163 -89 305 -171 315 -183 15 -18 17 -50 17 -343 l0 -322 -62 -23
c-155 -56 -280 -134 -401 -249 -96 -92 -148 -158 -213 -272 -44 -75 -102 -223
-118 -300 -7 -34 -179 -198 -290 -278 -153 -110 -339 -203 -503 -252 l-42 -12
-3 -466 c-3 -449 -4 -467 -24 -501 -11 -19 -35 -45 -54 -57 l-33 -23 -676 0
c-652 0 -677 1 -708 20 -70 42 -67 22 -73 548 l-5 474 -94 34 c-323 115 -599
314 -817 589 l-67 85 -271 144 c-364 194 -354 188 -366 214 -6 15 -10 187 -10
496 0 391 2 476 14 492 8 10 146 91 307 179 l293 160 71 140 c242 480 602 797
1095 967 123 42 220 65 350 82 221 30 348 32 540 7z m-1197 -3684 c65 -49 65
-51 73 -408 8 -363 3 -443 -29 -491 -32 -46 -81 -72 -137 -71 -59 1 -567 120
-599 140 -18 11 -22 21 -18 41 7 33 310 724 332 759 32 49 87 64 221 61 115
-3 122 -4 157 -31z m2213 14 c23 -11 50 -33 62 -52 34 -57 324 -732 324 -757
0 -13 -4 -28 -10 -34 -21 -21 -542 -138 -615 -138 -68 0 -113 28 -144 90 -23
43 -23 50 -23 410 0 334 2 368 19 406 17 38 54 73 91 87 8 3 69 6 135 6 97 0
128 -3 161 -18z"/>
<path d="M2433 3791 c-140 -51 -262 -159 -327 -292 -63 -128 -68 -175 -63
-589 3 -292 7 -375 19 -417 56 -185 176 -336 327 -413 126 -63 71 -60 1127
-60 912 0 965 1 1022 19 139 43 279 152 354 276 20 33 49 96 65 140 l28 80 3
374 c4 426 -1 464 -69 600 -65 131 -190 242 -318 281 -57 18 -93 20 -382 20
l-318 0 -118 -145 -117 -145 -152 0 -151 0 -115 143 -114 142 -325 2 c-295 2
-329 1 -376 -16z m1475 -1453 c17 -17 15 -64 -4 -82 -13 -14 -62 -16 -383 -16
-272 0 -370 3 -379 12 -7 7 -12 26 -12 43 0 17 5 36 12 43 17 17 749 17 766 0z"/>
<path d="M3235 1435 c-76 -27 -145 -124 -145 -202 0 -51 41 -126 125 -228 118
-144 193 -223 226 -241 39 -20 103 -18 148 6 65 33 307 322 331 395 19 58 9
146 -23 193 -37 56 -121 97 -180 88 -58 -10 -119 -47 -163 -101 l-37 -46 -50
56 c-27 31 -61 62 -76 69 -43 23 -112 28 -156 11z"/>
</g>
</svg>
