<?xml version="1.0" standalone="no"?>
<!DOCTYPE svg PUBLIC "-//W3C//DTD SVG 20010904//EN"
 "http://www.w3.org/TR/2001/REC-SVG-20010904/DTD/svg10.dtd">
<svg version="1.0" xmlns="http://www.w3.org/2000/svg"
 width="300.000000pt" height="300.000000pt" viewBox="0 0 300.000000 300.000000"
 preserveAspectRatio="xMidYMid meet">

<g transform="translate(0.000000,300.000000) scale(0.100000,-0.100000)"
fill="#000000" stroke="none">
<path d="M1505 2772 c-16 -10 -36 -26 -44 -35 -8 -11 -29 -17 -55 -17 -57 0
-130 -37 -199 -100 -78 -71 -110 -127 -110 -193 -1 -78 21 -112 80 -125 26 -6
57 -13 69 -17 17 -5 23 -1 34 24 8 20 30 41 64 59 28 16 69 49 92 73 l40 45
41 -46 c69 -77 198 -130 322 -130 59 0 67 -3 102 -35 33 -30 46 -35 87 -35 43
0 50 3 62 28 7 15 15 59 18 97 4 62 1 77 -21 120 -32 63 -100 128 -206 199
-109 72 -177 99 -271 103 -61 3 -81 0 -105 -15z"/>
<path d="M1406 2224 c-31 -31 -13 -74 31 -74 16 0 27 9 35 26 11 23 10 29 -11
45 -28 23 -35 23 -55 3z"/>
<path d="M1093 2218 c-13 -6 -25 -20 -29 -30 -8 -26 3 -36 13 -12 23 64 114
28 98 -39 -4 -14 -18 -35 -31 -48 -24 -23 -33 -59 -13 -59 5 0 8 4 5 9 -3 5 8
26 24 46 19 24 30 49 30 69 0 37 -7 49 -37 65 -26 13 -31 13 -60 -1z"/>
<path d="M1739 2201 c-21 -16 -22 -22 -11 -45 19 -42 82 -30 82 15 0 18 -25
49 -40 49 -4 0 -18 -8 -31 -19z"/>
<path d="M1551 2127 c-25 -40 -26 -65 -6 -94 18 -26 56 -36 87 -24 20 9 18 10
-18 10 -63 1 -84 38 -53 96 26 48 18 57 -10 12z"/>
<path d="M2021 2134 c-27 -34 -27 -64 0 -98 12 -15 22 -38 22 -52 0 -13 3 -24
8 -24 16 0 9 47 -11 73 -28 36 -26 82 5 103 23 15 27 15 50 0 14 -9 25 -23 25
-31 0 -8 4 -15 10 -15 5 0 7 8 3 18 -20 57 -77 70 -112 26z"/>
<path d="M1480 1951 c0 -20 88 -44 140 -37 59 8 80 15 80 27 0 5 -12 4 -26 -1
-39 -15 -131 -12 -164 5 -17 9 -30 11 -30 6z"/>
<path d="M1286 1724 c-19 -49 15 -86 124 -138 60 -29 73 -31 170 -31 97 0 110
2 173 32 61 29 67 35 67 62 l0 30 -52 -24 c-147 -67 -328 -45 -440 54 -30 26
-37 28 -42 15z"/>
<path d="M1020 1491 c-348 -130 -677 -424 -848 -758 -103 -202 -172 -475 -172
-683 l0 -40 294 0 293 0 29 76 c16 42 34 77 39 78 6 0 11 -32 13 -76 l3 -77
167 -3 c92 -2 197 -1 235 0 l67 4 0 614 c0 338 2 614 4 614 3 0 65 -32 139
-71 l134 -70 17 -82 17 -82 -55 -454 c-31 -249 -56 -457 -56 -462 0 -5 83 -9
185 -9 151 0 185 3 185 14 0 8 -25 216 -55 464 l-55 450 17 81 17 80 128 66
128 66 0 -610 0 -609 78 -4 c42 -2 152 -2 245 0 l167 3 0 74 c0 41 5 77 10 80
6 3 19 -15 30 -42 11 -26 24 -56 30 -65 5 -10 10 -25 10 -33 0 -13 36 -15 270
-15 l270 0 0 29 c0 64 -22 241 -42 330 -41 192 -129 391 -246 556 -115 160
-340 363 -515 463 -71 41 -257 125 -257 116 0 -2 11 -22 25 -44 32 -51 58
-115 53 -134 -3 -13 -144 -91 -404 -223 l-91 -46 -231 121 c-127 67 -235 122
-241 122 -19 0 -23 47 -7 85 9 21 30 60 46 87 18 28 25 48 17 48 -6 -1 -46
-14 -87 -29z"/>
</g>
</svg>
