<?xml version="1.0" standalone="no"?>
<!DOCTYPE svg PUBLIC "-//W3C//DTD SVG 20010904//EN"
 "http://www.w3.org/TR/2001/REC-SVG-20010904/DTD/svg10.dtd">
<svg version="1.0" xmlns="http://www.w3.org/2000/svg"
 width="200.000000pt" height="200.000000pt" viewBox="0 0 200.000000 200.000000"
 preserveAspectRatio="xMidYMid meet">

<g transform="translate(0.000000,200.000000) scale(0.100000,-0.100000)"
fill="#000000" stroke="none">
<path d="M817 1965 c-211 -40 -389 -136 -533 -287 -89 -94 -125 -146 -179
-261 -70 -149 -90 -244 -89 -427 0 -185 20 -282 88 -426 54 -114 90 -167 174
-255 89 -95 169 -153 287 -210 194 -93 187 -92 848 -96 l578 -4 -4 578 c-4
658 -3 653 -92 841 -72 153 -197 300 -330 392 -73 50 -221 116 -315 140 -111
29 -321 36 -433 15z m173 -102 c27 -16 31 -16 65 3 33 17 38 18 63 4 21 -12
27 -23 27 -50 0 -30 -7 -38 -64 -77 -63 -43 -64 -44 -85 -25 -11 10 -40 30
-63 45 -35 22 -43 33 -43 56 0 56 46 76 100 44z m219 -205 c91 -28 149 -59
220 -118 60 -50 131 -141 169 -216 16 -31 35 -48 84 -74 35 -18 80 -44 101
-57 l37 -23 0 -163 0 -164 -106 -57 c-80 -43 -120 -72 -163 -118 -63 -69 -147
-127 -221 -154 l-50 -18 0 -151 c0 -120 -3 -155 -16 -173 -15 -22 -19 -22
-244 -22 -194 0 -231 2 -244 16 -13 13 -16 43 -16 172 l0 157 -48 17 c-72 26
-160 87 -224 156 -44 48 -81 75 -162 118 l-106 56 0 167 0 167 101 54 c99 54
101 56 137 125 44 84 153 198 232 242 158 89 353 112 519 61z m-492 -1205 c9
-11 13 -59 13 -150 0 -128 -1 -133 -24 -148 -21 -14 -32 -14 -125 8 -56 14
-104 27 -107 30 -3 3 20 64 51 136 46 106 62 132 84 140 35 14 93 5 108 -16z
m711 21 c25 -7 46 -43 107 -187 29 -67 35 -91 26 -97 -7 -4 -57 -17 -112 -30
-96 -22 -101 -22 -120 -4 -18 16 -19 29 -17 158 3 139 3 141 28 153 28 14 53
16 88 7z"/>
<path d="M645 1221 c-91 -42 -115 -97 -115 -263 0 -147 10 -186 58 -240 61
-68 63 -68 432 -68 370 0 371 0 432 68 50 56 61 102 56 257 -3 147 -13 174
-81 229 -38 30 -42 31 -157 34 l-117 4 -43 -51 c-41 -48 -46 -51 -91 -51 -44
0 -50 3 -89 50 l-42 50 -101 0 c-78 0 -112 -5 -142 -19z m124 -171 c5 0 20
-12 35 -26 57 -58 16 -174 -63 -174 -61 0 -111 46 -111 102 0 56 71 117 118
102 8 -2 17 -4 21 -4z m576 -4 c69 -29 84 -109 31 -162 -58 -58 -140 -38 -166
41 -15 45 8 97 53 119 39 19 40 19 82 2z m-305 -259 c19 3 47 12 62 19 34 17
38 17 38 1 0 -8 -18 -22 -39 -32 -49 -22 -146 -17 -185 8 -42 28 -22 36 36 16
34 -12 66 -16 88 -12z"/>
<path d="M905 435 c-38 -37 -32 -67 28 -137 75 -89 98 -90 166 -8 56 67 68 98
52 129 -25 46 -93 48 -122 2 -8 -12 -12 -13 -15 -3 -6 13 -56 42 -74 42 -6 0
-22 -11 -35 -25z"/>
</g>
</svg>
