<?xml version="1.0" standalone="no"?>
<!DOCTYPE svg PUBLIC "-//W3C//DTD SVG 20010904//EN"
 "http://www.w3.org/TR/2001/REC-SVG-20010904/DTD/svg10.dtd">
<svg version="1.0" xmlns="http://www.w3.org/2000/svg"
 width="400.000000pt" height="100.000000pt" viewBox="0 0 400.000000 100.000000"
 preserveAspectRatio="xMidYMid meet">

<g transform="translate(0.000000,100.000000) scale(0.100000,-0.100000)"
fill="#000000" stroke="none">
<path d="M368 955 c-179 -49 -312 -199 -341 -384 -29 -187 62 -378 227 -475
118 -70 19 -67 1841 -64 l1640 3 56 28 c65 31 132 99 160 160 29 66 26 188 -7
254 -30 62 -88 117 -158 149 l-51 24 -1397 0 -1397 0 -25 56 c-31 67 -129 171
-194 207 -99 54 -247 72 -354 42z m158 -52 c42 3 45 -32 4 -56 -29 -18 -31
-18 -60 3 -45 32 -35 83 11 59 9 -4 29 -7 45 -6z m71 -98 c59 -18 139 -84 168
-140 13 -25 36 -45 68 -61 l48 -25 -3 -82 -3 -82 -48 -26 c-27 -14 -65 -43
-85 -64 -20 -21 -56 -47 -79 -57 l-43 -19 0 -80 0 -80 -117 3 -118 3 -3 78 -3
78 -35 15 c-19 8 -59 37 -89 64 -30 27 -73 59 -95 70 l-40 20 0 79 0 78 50 27
c33 18 57 40 69 64 32 63 104 119 181 143 42 12 124 10 177 -6z m786 -265 c-5
-17 -14 -20 -59 -20 -47 0 -54 -2 -54 -20 0 -16 7 -20 35 -20 28 0 35 -4 35
-19 0 -16 -8 -20 -42 -23 -31 -2 -44 -8 -46 -20 -3 -15 4 -18 48 -18 44 0 51
-3 48 -17 -3 -15 -17 -18 -86 -21 -76 -3 -83 -1 -78 15 2 10 10 38 16 63 6 25
13 53 16 63 4 14 -1 17 -30 17 -38 0 -41 -6 -64 -115 -6 -34 -12 -41 -35 -43
-31 -4 -32 0 -12 83 19 78 20 75 -15 75 -28 0 -40 17 -23 33 3 4 84 7 179 7
167 0 172 -1 167 -20z m154 -6 c21 -21 23 -28 12 -35 -21 -13 -46 -11 -53 6
-8 23 -44 18 -61 -9 -34 -52 2 -119 44 -82 15 14 24 15 40 7 11 -6 22 -11 24
-11 2 0 9 26 16 58 21 95 20 93 54 90 29 -3 32 -8 51 -68 l19 -65 17 65 c13
54 20 66 39 68 22 3 23 1 16 -40 l-6 -43 16 29 c23 42 45 55 93 56 59 0 95
-34 90 -88 -3 -33 1 -39 29 -54 18 -10 42 -18 53 -18 34 0 22 25 -22 45 -34
16 -44 26 -46 48 -5 44 22 67 78 67 59 0 102 -28 77 -49 -12 -9 -21 -10 -36
-2 -28 15 -61 14 -61 -2 0 -8 19 -22 43 -32 23 -10 45 -20 50 -23 4 -2 7 8 7
23 0 16 12 38 29 56 58 57 161 28 161 -45 0 -40 16 -17 25 36 6 34 10 38 36
38 32 0 32 2 8 -90 -17 -65 -14 -70 37 -70 38 0 45 -3 42 -17 -3 -15 -16 -18
-81 -21 l-78 -3 6 38 c6 36 5 37 -8 14 -34 -57 -112 -68 -157 -23 l-28 29 -11
-23 c-18 -40 -111 -45 -152 -8 -17 15 -20 15 -45 -5 -63 -50 -151 -9 -155 72
-1 12 -8 -4 -16 -35 -14 -53 -17 -58 -43 -58 -26 0 -30 6 -51 68 -23 70 -25
69 -43 -13 -9 -40 -16 -51 -34 -53 -17 -3 -22 2 -22 18 l0 21 -26 -20 c-40
-31 -89 -28 -126 9 -27 28 -30 35 -24 73 13 88 114 130 173 71z m1006 -39
c-15 -68 -9 -95 23 -95 18 0 26 16 44 90 15 59 19 65 44 68 26 3 28 1 24 -22
l-5 -25 29 24 c41 35 105 35 138 -1 21 -21 22 -27 10 -34 -21 -14 -36 -12 -50
5 -28 34 -65 12 -76 -43 -10 -52 26 -80 60 -47 11 11 21 13 40 5 28 -10 26
-13 47 83 11 53 14 57 40 57 26 0 28 -2 22 -31 l-6 -30 31 30 c61 62 162 31
162 -48 1 -45 15 -24 25 37 6 39 9 42 40 42 32 0 33 -2 51 -65 10 -35 21 -61
25 -57 3 4 11 33 18 65 11 50 15 57 36 57 27 0 27 -2 -5 -130 -15 -61 -18 -65
-47 -68 -29 -3 -31 -1 -49 62 -17 61 -34 86 -34 51 0 -7 -5 -37 -11 -65 -9
-44 -14 -50 -36 -50 -22 0 -24 3 -18 33 5 25 4 28 -5 14 -15 -24 -63 -47 -100
-47 -42 0 -80 39 -80 82 0 44 -17 19 -26 -39 -6 -40 -9 -43 -36 -43 -25 0 -29
3 -25 19 5 19 4 19 -27 0 -17 -10 -45 -19 -62 -19 -37 0 -84 34 -84 61 0 29
-13 23 -30 -14 -26 -56 -122 -64 -156 -12 -15 23 -15 30 1 95 16 66 19 70 45
70 l28 0 -15 -65z m971 54 c-5 -8 -1 -8 14 0 27 14 84 14 117 -1 29 -13 31
-21 10 -38 -12 -10 -19 -10 -27 -2 -15 15 -55 16 -63 2 -3 -6 14 -19 39 -30
33 -14 47 -26 52 -46 15 -58 -77 -95 -146 -59 -25 13 -29 13 -34 0 -4 -12 -24
-15 -86 -15 -73 0 -81 2 -76 18 3 9 12 49 21 87 9 39 19 76 21 83 2 8 28 12
84 12 57 0 79 -3 74 -11z m-2446 -306 c-26 -6 -22 -22 7 -33 15 -6 25 -17 25
-30 0 -11 -2 -20 -4 -20 -2 0 -13 -3 -23 -6 -16 -5 -16 -4 1 7 19 12 18 13 -9
35 -30 24 -29 55 2 53 17 -1 17 -2 1 -6z m69 -43 c-5 -27 -14 -50 -19 -50 -6
0 -8 6 -5 14 3 8 9 31 13 50 3 20 10 36 14 36 4 0 3 -22 -3 -50z m83 40 c11
-8 8 -9 -12 -4 -35 8 -36 -4 -1 -32 24 -19 26 -24 14 -38 -7 -9 -19 -16 -25
-15 -7 0 -6 2 2 6 20 8 14 33 -13 45 -28 13 -30 19 -13 36 15 15 28 15 48 2z
m94 1 c3 -5 -2 -8 -11 -7 -12 1 -19 -11 -26 -41 -4 -24 -12 -43 -17 -43 -4 0
-4 17 1 38 12 51 11 55 -7 48 -8 -3 -12 -2 -9 4 8 12 62 13 69 1z m76 0 c0 -5
-8 -7 -19 -4 -10 3 -22 0 -25 -6 -4 -6 1 -11 11 -12 14 0 15 -2 3 -6 -18 -7
-30 -23 -30 -42 0 -9 9 -12 29 -9 17 2 28 1 25 -4 -3 -4 -21 -8 -41 -8 -26 0
-34 4 -30 14 3 8 9 31 13 50 5 31 10 36 35 36 16 0 29 -4 29 -9z m55 -12 l7
-21 22 21 c12 12 25 21 28 21 3 0 1 -22 -5 -50 -5 -27 -14 -50 -19 -50 -5 0
-6 10 -3 23 19 66 20 64 -7 39 -24 -21 -26 -22 -32 -5 -3 10 -9 24 -12 31 -3
6 -1 12 4 12 6 0 14 -9 17 -21z m135 -6 c0 -16 3 -38 6 -50 4 -13 2 -23 -4
-23 -5 0 -12 9 -15 20 -3 11 -12 20 -20 20 -9 0 -19 -9 -22 -20 -3 -11 -11
-20 -16 -20 -5 0 -2 12 7 26 11 17 24 24 36 21 13 -4 18 0 18 15 0 18 -2 19
-17 7 -15 -13 -15 -12 -4 9 16 30 31 28 31 -5z m144 11 c33 -32 3 -84 -48 -84
l-33 0 10 50 c8 43 13 50 33 50 12 0 30 -7 38 -16z m106 6 c0 -6 -11 -8 -25
-4 -15 4 -25 2 -25 -4 0 -6 8 -13 18 -15 13 -4 13 -5 -4 -6 -15 -1 -23 -9 -27
-27 -4 -24 -2 -26 24 -22 15 3 26 1 23 -4 -3 -4 -20 -8 -38 -8 l-33 0 11 50
c10 48 11 50 43 50 18 0 33 -5 33 -10z m130 1 c0 -4 -11 -6 -24 -4 -29 6 -51
-26 -41 -58 10 -31 49 -21 53 14 2 15 8 27 14 27 6 0 8 -10 4 -22 -3 -13 -6
-29 -6 -35 0 -14 -48 -17 -67 -5 -21 13 -20 54 3 76 16 17 64 22 64 7z m100 0
c0 -5 -8 -7 -19 -4 -10 3 -22 0 -25 -6 -4 -6 1 -11 11 -12 14 0 14 -2 -4 -9
-14 -6 -23 -18 -23 -31 0 -17 5 -20 25 -17 14 3 25 1 25 -3 0 -5 -16 -9 -36
-9 -29 0 -34 3 -30 18 2 9 7 32 11 50 6 27 11 32 36 32 16 0 29 -4 29 -9z m74
0 c4 -5 -3 -7 -14 -4 -28 7 -25 -7 7 -33 24 -19 26 -24 14 -38 -7 -9 -19 -16
-25 -15 -7 0 -6 2 2 6 21 8 13 33 -13 43 -38 15 -31 46 12 49 6 1 14 -3 17 -8z
m96 -1 c0 -5 -6 -7 -14 -4 -11 4 -16 -6 -21 -40 -4 -25 -12 -46 -17 -46 -5 0
-7 8 -5 18 18 63 18 75 3 69 -9 -4 -16 -2 -16 3 0 6 16 10 35 10 19 0 35 -4
35 -10z m26 -40 c-5 -27 -14 -50 -19 -50 -4 0 -6 8 -3 18 2 9 7 32 11 50 4 17
10 32 14 32 4 0 3 -22 -3 -50z m108 29 c16 -23 12 -47 -12 -66 -26 -21 -34
-15 -11 8 37 37 4 92 -36 59 -18 -15 -20 -70 -3 -70 6 0 8 -3 5 -6 -10 -11
-37 17 -37 37 0 25 35 59 59 59 11 0 27 -10 35 -21z m71 1 l19 -21 13 23 c13
22 13 22 7 -7 -9 -41 -11 -42 -37 -17 -13 12 -27 19 -30 15 -4 -3 -7 1 -7 10
0 23 13 21 35 -3z m169 4 c34 -34 5 -84 -49 -84 l-32 0 11 50 c8 42 14 50 32
50 13 0 30 -7 38 -16z m106 6 c0 -6 -11 -8 -25 -4 -15 4 -25 2 -25 -4 0 -6 8
-13 18 -15 13 -4 13 -5 -4 -6 -15 -1 -23 -9 -27 -27 -4 -24 -2 -26 24 -22 15
3 26 1 23 -4 -3 -4 -20 -8 -38 -8 l-33 0 11 50 c10 48 11 50 43 50 18 0 33 -5
33 -10z m126 -2 c7 -11 -21 -38 -40 -38 -5 0 -1 6 10 14 20 15 14 32 -9 23 -8
-3 -17 -24 -21 -46 -3 -23 -10 -41 -14 -41 -5 0 -4 23 2 50 9 45 12 50 37 50
15 0 31 -5 35 -12z m79 2 c4 -6 2 -17 -4 -24 -8 -9 -8 -22 -1 -40 6 -16 6 -26
0 -26 -5 0 -12 11 -16 25 -11 42 -42 27 -35 -17 0 -5 -6 -8 -14 -8 -11 0 -12
5 -5 26 6 14 10 36 10 50 0 20 5 24 29 24 17 0 33 -5 36 -10z m96 0 c10 -6 19
-20 19 -32 0 -22 -26 -58 -42 -58 -5 0 -2 7 7 16 9 9 15 28 13 43 -4 36 -37
35 -58 -2 -14 -26 -14 -29 4 -43 21 -15 18 -18 -8 -8 -24 9 -20 60 6 78 26 19
33 19 59 6z m49 -10 c0 -26 15 -25 34 2 9 12 16 18 16 12 0 -6 -9 -19 -20 -29
-11 -10 -20 -29 -20 -42 0 -12 -4 -23 -10 -23 -5 0 -9 12 -8 28 0 15 -3 37 -7
50 -5 14 -3 22 4 22 6 0 11 -9 11 -20z m130 11 c0 -4 -11 -6 -25 -3 -28 5 -35
-14 -7 -21 13 -4 11 -5 -5 -6 -18 -1 -23 -7 -23 -27 0 -23 3 -26 25 -22 14 3
25 1 25 -3 0 -5 -16 -9 -35 -9 l-36 0 7 38 c4 20 7 43 7 50 0 7 14 12 34 12
18 0 33 -4 33 -9z m90 0 c0 -4 -11 -6 -25 -4 -19 4 -27 0 -36 -20 -16 -34 -6
-55 28 -60 27 -4 27 -4 -4 -6 -50 -2 -63 38 -25 82 15 17 62 24 62 8z m84 0
c3 -5 -2 -8 -11 -7 -12 1 -19 -11 -26 -41 -4 -24 -12 -43 -17 -43 -4 0 -4 17
1 38 12 51 11 55 -7 48 -8 -3 -12 -2 -9 4 8 12 62 13 69 1z m90 -7 c9 -8 16
-22 16 -30 0 -17 -35 -54 -52 -54 -7 0 -2 7 10 16 31 21 27 68 -5 72 -31 4
-53 -40 -35 -69 13 -21 3 -26 -16 -7 -17 17 -15 32 9 62 23 29 50 33 73 10z
m86 6 c11 -8 8 -9 -12 -4 -35 8 -36 -4 -1 -32 24 -19 26 -24 14 -38 -7 -9 -19
-16 -25 -15 -7 0 -6 2 2 6 20 8 14 33 -13 45 -28 13 -30 19 -13 36 15 15 28
15 48 2z m-3180 -74 c0 -85 -4 -88 -70 -71 -49 13 -50 16 -23 80 24 57 32 65
64 65 l29 0 0 -74z m370 27 c38 -86 37 -88 -18 -99 -27 -5 -54 -8 -61 -6 -12
4 -16 134 -4 145 3 4 19 7 34 7 24 0 31 -7 49 -47z m687 -5 c-3 -7 -5 -2 -5
12 0 14 2 19 5 13 2 -7 2 -19 0 -25z m980 -10 c-3 -7 -5 -2 -5 12 0 14 2 19 5
13 2 -7 2 -19 0 -25z m60 -20 c-3 -8 -6 -5 -6 6 -1 11 2 17 5 13 3 -3 4 -12 1
-19z m-1412 -6 c-3 -3 -11 0 -18 7 -9 10 -8 11 6 5 10 -3 15 -9 12 -12z m135
2 c0 -2 -7 -4 -15 -4 -8 0 -15 4 -15 10 0 5 7 7 15 4 8 -4 15 -8 15 -10z m920
0 c0 -2 -7 -4 -15 -4 -8 0 -15 4 -15 10 0 5 7 7 15 4 8 -4 15 -8 15 -10z
m1400 0 c0 -2 -7 -4 -15 -4 -8 0 -15 4 -15 10 0 5 7 7 15 4 8 -4 15 -8 15 -10z"/>
<path d="M324 600 c-40 -16 -54 -49 -54 -125 0 -139 30 -157 248 -153 l154 3
29 33 c27 30 29 38 29 112 0 68 -3 82 -23 106 -20 23 -34 28 -85 32 -56 4 -61
3 -77 -22 -22 -34 -61 -34 -87 -1 -16 21 -28 25 -66 24 -26 0 -57 -4 -68 -9z
m74 -92 c21 -21 15 -67 -12 -79 -34 -16 -66 3 -66 39 0 33 16 52 45 52 12 0
26 -5 33 -12z m278 -13 c15 -23 15 -27 0 -50 -19 -29 -47 -32 -70 -9 -31 30
-9 84 34 84 11 0 27 -11 36 -25z m-146 -98 c17 6 30 8 30 3 0 -23 -91 -28
-110 -6 -10 13 -7 13 19 3 23 -8 39 -9 61 0z"/>
<path d="M443 212 c-7 -18 15 -61 40 -76 20 -13 42 -2 69 35 30 40 15 57 -49
57 -39 -1 -56 -5 -60 -16z"/>
<path d="M1825 496 c-20 -30 -16 -75 8 -90 27 -16 59 26 55 73 -4 46 -38 55
-63 17z"/>
<path d="M2190 505 c-19 -23 -18 -85 2 -98 35 -23 86 64 58 98 -16 19 -44 19
-60 0z"/>
<path d="M2994 483 c-25 -60 10 -108 49 -68 22 21 31 73 17 90 -22 27 -50 18
-66 -22z"/>
<path d="M3400 500 c0 -16 7 -20 35 -20 28 0 35 -4 35 -19 0 -16 -8 -20 -42
-23 -31 -2 -44 -8 -46 -20 -3 -15 4 -18 42 -18 26 0 51 6 60 15 13 14 19 13
49 -1 34 -16 67 -14 67 4 0 5 -18 16 -41 25 -29 11 -44 25 -52 46 -10 29 -15
31 -59 31 -41 0 -48 -3 -48 -20z"/>
<path d="M1676 228 c-17 -53 -16 -68 3 -68 25 0 43 24 39 52 -3 25 -36 37 -42
16z"/>
<path d="M2556 228 c-17 -53 -16 -68 3 -68 25 0 43 24 39 52 -3 25 -36 37 -42
16z"/>
<path d="M2870 225 c0 -8 4 -15 9 -15 5 0 14 7 21 15 10 13 9 15 -9 15 -12 0
-21 -6 -21 -15z"/>
</g>
</svg>
